<svg xmlns="http://www.w3.org/2000/svg"  viewBox="0 0 48 48" width="48px" height="48px" baseProfile="basic"><circle cx="24" cy="24" r="20" fill="#8fcae6"/><path fill="#324561" d="M26.707,44.796c-0.553,0-1-0.447-1-1V29.301c0-0.553,0.447-1,1-1h4.318l0.504-3.258h-4.822	c-0.553,0-1-0.447-1-1v-2.874c0-3.207,1.404-5.121,3.757-5.121h2.283v-2.701c-0.685-0.068-1.679-0.135-3.103-0.135	c-4.527,0-6.636,2.33-6.636,7.334v3.498c0,0.553-0.447,1-1,1H17.06v3.258h3.948c0.553,0,1,0.447,1,1v14.452c0,0.553-0.447,1-1,1	s-1-0.447-1-1V30.302H16.06c-0.553,0-1-0.447-1-1v-5.258c0-0.553,0.447-1,1-1h3.949v-2.498c0-7.715,4.696-9.334,8.636-9.334	c2.339,0,3.604,0.171,4.211,0.254c0.496,0.066,0.892,0.494,0.892,0.994v4.588c0,0.553-0.447,1-1,1h-3.283	c-1.452,0-1.757,1.697-1.757,3.121v1.874h4.989c0.292,0,0.569,0.128,0.759,0.35c0.19,0.222,0.274,0.515,0.229,0.804l-0.813,5.258	c-0.075,0.487-0.495,0.847-0.988,0.847h-4.176v13.495C27.707,44.349,27.26,44.796,26.707,44.796z"/></svg>